<svg width="12" height="8" viewBox="0 0 12 8" fill="none" xmlns="http://www.w3.org/2000/svg">
<path fill-rule="evenodd" clip-rule="evenodd" d="M11.1659 7.70725C11.5569 7.31625 11.5569 6.68425 11.1659 6.29325L8.87292 4.00025L11.1659 1.70725C11.5569 1.31625 11.5569 0.68425 11.1659 0.29325C10.7749 -0.09775 10.1429 -0.09775 9.75192 0.29325L6.04492 4.00025L9.75192 7.70725C9.94692 7.90225 10.2029 8.00025 10.4589 8.00025C10.7149 8.00025 10.9709 7.90225 11.1659 7.70725ZM4.95892 8.00025C4.70292 8.00025 4.44692 7.90225 4.25192 7.70725L0.544922 4.00025L4.25192 0.29325C4.64292 -0.09775 5.27492 -0.09775 5.66592 0.29325C6.05692 0.68425 6.05692 1.31625 5.66592 1.70725L3.37292 4.00025L5.66592 6.29325C6.05692 6.68425 6.05692 7.31625 5.66592 7.70725C5.47092 7.90225 5.21492 8.00025 4.95892 8.00025Z" fill="#0E1319" fill-opacity="0.8"/>
</svg>
