<svg width="24" height="29" viewBox="0 0 24 29" fill="none" xmlns="http://www.w3.org/2000/svg">
<rect width="24" height="22" rx="8" fill="#070707"/>
<path d="M12 29L5.93782 18.5L18.0622 18.5L12 29Z" fill="#070707"/>
<path d="M12.1932 18.1591C11.3902 18.1591 10.6742 18.0114 10.0455 17.7159C9.42045 17.4205 8.92424 17.0133 8.55682 16.4943C8.18939 15.9754 7.99811 15.3807 7.98295 14.7102H10.3693C10.3958 15.161 10.5852 15.5265 10.9375 15.8068C11.2898 16.0871 11.7083 16.2273 12.1932 16.2273C12.5795 16.2273 12.9205 16.142 13.2159 15.9716C13.5152 15.7973 13.7481 15.5568 13.9148 15.25C14.0852 14.9394 14.1705 14.5833 14.1705 14.1818C14.1705 13.7727 14.0833 13.4129 13.9091 13.1023C13.7386 12.7917 13.5019 12.5492 13.1989 12.375C12.8958 12.2008 12.5492 12.1117 12.1591 12.108C11.8182 12.108 11.4867 12.178 11.1648 12.3182C10.8466 12.4583 10.5985 12.6496 10.4205 12.892L8.23295 12.5L8.78409 6.36364H15.8977V8.375H10.8125L10.5114 11.2898H10.5795C10.7841 11.0019 11.0928 10.7633 11.5057 10.5739C11.9186 10.3845 12.3807 10.2898 12.892 10.2898C13.5928 10.2898 14.2178 10.4545 14.767 10.7841C15.3163 11.1136 15.75 11.5663 16.0682 12.142C16.3864 12.714 16.5436 13.3731 16.5398 14.1193C16.5436 14.9034 16.3617 15.6004 15.9943 16.2102C15.6307 16.8163 15.1212 17.2936 14.4659 17.642C13.8144 17.9867 13.0568 18.1591 12.1932 18.1591Z" fill="white"/>
</svg>
