<?xml version="1.0" encoding="UTF-8"?>
<svg width="14px" height="14px" viewBox="0 0 14 14" version="1.1" xmlns="http://www.w3.org/2000/svg" xmlns:xlink="http://www.w3.org/1999/xlink">
    <title>ic/20/utility/menu</title>
    <g id="Symbols" stroke="none" stroke-width="1" fill="none" fill-rule="evenodd" fill-opacity="0.98">
        <g id="component/header" transform="translate(-15.000000, -12.000000)" fill="#FCFDFF">
            <g id="Group" transform="translate(15.000000, 11.000000)">
                <g id="ic/20/utility/menu" transform="translate(0.000000, 1.000000)">
                    <path d="M12.5,11 C11.671,11 11,11.672 11,12.5 C11,13.328 11.671,14 12.5,14 C13.329,14 14,13.328 14,12.5 C14,11.672 13.329,11 12.5,11 M7,11 C6.171,11 5.5,11.672 5.5,12.5 C5.5,13.328 6.171,14 7,14 C7.829,14 8.5,13.328 8.5,12.5 C8.5,11.672 7.829,11 7,11 M1.5,11 C0.671,11 0,11.672 0,12.5 C0,13.328 0.671,14 1.5,14 C2.329,14 3,13.328 3,12.5 C3,11.672 2.329,11 1.5,11 M12.5,5.5 C11.671,5.5 11,6.171 11,7 C11,7.829 11.671,8.5 12.5,8.5 C13.329,8.5 14,7.829 14,7 C14,6.171 13.329,5.5 12.5,5.5 M7,5.5 C6.171,5.5 5.5,6.171 5.5,7 C5.5,7.829 6.171,8.5 7,8.5 C7.829,8.5 8.5,7.829 8.5,7 C8.5,6.171 7.829,5.5 7,5.5 M1.5,5.5 C0.671,5.5 0,6.171 0,7 C0,7.829 0.671,8.5 1.5,8.5 C2.329,8.5 3,7.829 3,7 C3,6.171 2.329,5.5 1.5,5.5 M12.5,3 C13.329,3 14,2.329 14,1.5 C14,0.671 13.329,0 12.5,0 C11.671,0 11,0.671 11,1.5 C11,2.329 11.671,3 12.5,3 M7,0 C6.171,0 5.5,0.671 5.5,1.5 C5.5,2.329 6.171,3 7,3 C7.829,3 8.5,2.329 8.5,1.5 C8.5,0.671 7.829,0 7,0 M3,1.5 C3,2.329 2.329,3 1.5,3 C0.671,3 0,2.329 0,1.5 C0,0.671 0.671,0 1.5,0 C2.329,0 3,0.671 3,1.5" id="menu"></path>
                </g>
            </g>
        </g>
    </g>
</svg>