<svg width="244" height="16" viewBox="0 0 244 16" fill="none" xmlns="http://www.w3.org/2000/svg">
<g clip-path="url(#clip0_5_3574)">
<rect x="0.5" y="0.5" width="243" height="15" rx="5.5" fill="#C3D2D6" stroke="#979797"/>
<path d="M0.5 6C0.5 2.96243 2.96243 0.5 6 0.5H19.5V15.5H6C2.96243 15.5 0.5 13.0376 0.5 10V6Z" fill="#53565A" stroke="#53565A"/>
<path d="M243.5 6C243.5 2.96243 241.038 0.5 238 0.5H224.5V15.5H238C241.038 15.5 243.5 13.0376 243.5 10V6Z" fill="#53565A" stroke="#53565A"/>
<path d="M10.2 11H11.55V4.16H10.38C10.17 4.77 9.74 5.18 8.46 5.18V6.24C9.32 6.24 9.83 6.06 10.2 5.79V11Z" fill="black" fill-opacity="0.98"/>
<path d="M230.2 11H231.55V4.16H230.38C230.17 4.77 229.74 5.18 228.46 5.18V6.24C229.32 6.24 229.83 6.06 230.2 5.79V11ZM237.512 7.6C237.512 9.19 237.042 10.04 235.992 10.04C234.942 10.04 234.482 9.19 234.482 7.58C234.482 5.99 234.942 5.14 235.992 5.14C237.042 5.14 237.512 5.99 237.512 7.6ZM238.882 7.57C238.882 5.32 237.882 4.02 236.032 4.02C234.192 4.02 233.112 5.36 233.112 7.61C233.112 9.86 234.112 11.16 235.962 11.16C237.802 11.16 238.882 9.82 238.882 7.57Z" fill="black" fill-opacity="0.98"/>
</g>
<defs>
<clipPath id="clip0_5_3574">
<rect width="244" height="16" fill="white"/>
</clipPath>
</defs>
</svg>
