<svg width="16" height="17" viewBox="0 0 16 17" fill="none" xmlns="http://www.w3.org/2000/svg">
<path fill-rule="evenodd" clip-rule="evenodd" d="M10 8.07675C10 9.18075 9.104 10.0767 8 10.0767C6.896 10.0767 6 9.18075 6 8.07675C6 6.97275 6.896 6.07675 8 6.07675C9.104 6.07675 10 6.97275 10 8.07675ZM13.948 8.85575C13.365 9.08275 12.789 9.40475 12.55 9.98875C12.307 10.5798 12.486 11.2228 12.735 11.7998C12.428 12.1997 12.074 12.5588 11.678 12.8708C11.106 12.6198 10.469 12.4407 9.877 12.6897C9.299 12.9337 8.98 13.5147 8.758 14.1027C8.245 14.1707 7.753 14.1697 7.242 14.1027C7.02 13.5147 6.701 12.9338 6.12 12.6877C5.533 12.4427 4.896 12.6208 4.322 12.8708C3.927 12.5598 3.573 12.2008 3.265 11.7998C3.515 11.2218 3.693 10.5787 3.451 9.98975C3.211 9.40575 2.636 9.08375 2.052 8.85575C2.017 8.59475 2 8.33275 2 8.07675C2 7.81975 2.018 7.55775 2.052 7.29675C2.635 7.07175 3.211 6.74875 3.45 6.16475C3.693 5.57475 3.514 4.93075 3.265 4.35375C3.572 3.95275 3.926 3.59475 4.321 3.28275C4.893 3.53475 5.53 3.71075 6.121 3.46375C6.701 3.21975 7.02 2.63975 7.242 2.05075C7.752 1.98275 8.248 1.98275 8.758 2.05075C8.98 2.63975 9.299 3.22175 9.88 3.46475C10.47 3.71175 11.106 3.53475 11.679 3.28275C12.074 3.59475 12.428 3.95275 12.735 4.35375C12.486 4.93175 12.307 5.57375 12.549 6.16475C12.789 6.74875 13.365 7.07175 13.948 7.29675C13.982 7.55875 14 7.82075 14 8.07675C14 8.33275 13.983 8.59475 13.948 8.85575ZM15.878 6.68575C15.781 6.13975 15.389 5.68475 14.855 5.49875C14.691 5.44175 14.574 5.39375 14.49 5.35575C14.521 5.26475 14.571 5.14175 14.649 4.97575C14.89 4.46375 14.843 3.86475 14.526 3.41475C14.003 2.66975 13.364 2.02375 12.625 1.49275C12.169 1.16675 11.567 1.11975 11.055 1.36875C10.903 1.44175 10.788 1.48975 10.702 1.52075C10.664 1.43575 10.617 1.31875 10.562 1.15775C10.379 0.61775 9.925 0.22175 9.379 0.12375C8.459 -0.04125 7.541 -0.04125 6.621 0.12375C6.075 0.22175 5.621 0.61775 5.438 1.15675C5.383 1.31775 5.336 1.43575 5.298 1.52075C5.212 1.48975 5.098 1.44175 4.948 1.36875C4.429 1.11875 3.828 1.16575 3.375 1.49375C2.637 2.02175 1.997 2.66875 1.474 3.41475C1.157 3.86475 1.11 4.46375 1.351 4.97575C1.429 5.14175 1.479 5.26475 1.51 5.35575C1.426 5.39375 1.309 5.44175 1.146 5.49875C0.611 5.68475 0.219 6.13975 0.122 6.68875C0.041 7.15275 0 7.61975 0 8.07675C0 8.53375 0.041 9.00075 0.122 9.46575C0.217 10.0138 0.61 10.4698 1.145 10.6538C1.308 10.7108 1.426 10.7598 1.51 10.7987C1.479 10.8888 1.429 11.0117 1.351 11.1777C1.11 11.6897 1.157 12.2887 1.473 12.7378C1.997 13.4847 2.637 14.1317 3.373 14.6587C3.828 14.9867 4.429 15.0347 4.945 14.7858C5.097 14.7128 5.212 14.6647 5.298 14.6327C5.336 14.7177 5.383 14.8348 5.438 14.9958C5.621 15.5347 6.073 15.9308 6.622 16.0298C7.085 16.1118 7.548 16.1537 8 16.1537C8.452 16.1537 8.915 16.1118 9.381 16.0298C9.927 15.9308 10.379 15.5347 10.562 14.9967C10.617 14.8357 10.664 14.7177 10.702 14.6327C10.788 14.6647 10.903 14.7128 11.054 14.7858C11.572 15.0338 12.173 14.9848 12.625 14.6608C13.363 14.1318 14.003 13.4848 14.526 12.7388C14.843 12.2888 14.89 11.6897 14.649 11.1777C14.571 11.0117 14.521 10.8888 14.49 10.7978C14.573 10.7598 14.69 10.7118 14.853 10.6547C15.39 10.4697 15.783 10.0138 15.878 9.46575C15.959 9.00075 16 8.53375 16 8.07675C16 7.61975 15.959 7.15275 15.878 6.68575Z" fill="#0056D6"/>
</svg>
