<svg width="14" height="4" viewBox="0 0 14 4" fill="none" xmlns="http://www.w3.org/2000/svg">
<path fill-rule="evenodd" clip-rule="evenodd" d="M12.5 0.5C11.671 0.5 11 1.171 11 2C11 2.829 11.671 3.5 12.5 3.5C13.329 3.5 14 2.829 14 2C14 1.171 13.329 0.5 12.5 0.5ZM7 0.5C6.171 0.5 5.5 1.171 5.5 2C5.5 2.829 6.171 3.5 7 3.5C7.829 3.5 8.5 2.829 8.5 2C8.5 1.171 7.829 0.5 7 0.5ZM1.5 0.5C0.671 0.5 0 1.171 0 2C0 2.829 0.671 3.5 1.5 3.5C2.329 3.5 3 2.829 3 2C3 1.171 2.329 0.5 1.5 0.5Z" fill="#53565A"/>
</svg>
