<?xml version="1.0" encoding="UTF-8"?>
<svg width="18px" height="18px" viewBox="0 0 18 18" version="1.1" xmlns="http://www.w3.org/2000/svg" xmlns:xlink="http://www.w3.org/1999/xlink">
    <title>Group 3</title>
    <defs>
        <polygon id="path-1" points="0 0 18 0 18 18 0 18"></polygon>
    </defs>
    <g id="Symbols" stroke="none" stroke-width="1" fill="none" fill-rule="evenodd">
        <g id="component/header" transform="translate(-1229.000000, -11.000000)">
            <g id="Group-3" transform="translate(1229.000000, 11.000000)">
                <mask id="mask-2" fill="white">
                    <use xlink:href="#path-1"></use>
                </mask>
                <g id="Clip-2"></g>
                <path d="M14.3851179,14.9000896 C14.1053786,14.1290817 13.6639929,13.4266663 13.0905,12.8403184 C12.5170714,12.2538741 11.8247464,11.7969329 11.0601,11.5001589 C11.9855893,10.9031075 12.6064607,9.93381095 12.7620321,8.84346484 C12.917475,7.75302231 12.5922857,6.64885483 11.8704536,5.81693637 C11.1487179,4.98482505 10.1014393,4.5069589 9.00006429,4.5069589 C7.89865714,4.5069589 6.85137857,4.98482505 6.129675,5.81693637 C5.40784286,6.64885483 5.08265357,7.75302231 5.23809643,8.84346484 C5.39366786,9.93381095 6.01453929,10.9031075 6.94002857,11.5001589 C6.17538214,11.796965 5.48305714,12.2538741 4.90962857,12.8403184 C4.33607143,13.4266663 3.89475,14.1290817 3.61501071,14.9000896 C2.42132143,13.8135042 1.58409643,12.3911879 1.21358571,10.8199221 C0.843203571,9.24881697 0.956571429,7.60207999 1.53916071,6.09686751 C2.12175,4.59139789 3.14604643,3.2972668 4.477725,2.38502362 C5.809275,1.47245903 7.38578571,0.984017914 9.000225,0.984017914 C10.6146643,0.984017914 12.1910464,1.47245903 13.522725,2.38502362 C14.8544036,3.29742751 15.8787,4.5915586 16.4612893,6.09686751 C17.0438786,7.60230499 17.1572464,9.24884911 16.7868643,10.8199221 C16.4163536,12.3911236 15.5790964,13.81344 14.3854393,14.9000896 L14.3851179,14.9000896 Z M6.20026071,8.29507752 C6.20026071,7.55251588 6.49520357,6.84026486 7.02028929,6.31518102 C7.545375,5.79009718 8.25766071,5.49512323 9.000225,5.49512323 C9.74278929,5.49512323 10.4550429,5.79006504 10.9801286,6.31518102 C11.5052464,6.84026486 11.8001893,7.55251588 11.8001893,8.29507752 C11.8001893,9.03773558 11.5052464,9.74992232 10.9801286,10.2750062 C10.4550429,10.80009 9.74278929,11.0951925 9.000225,11.0951925 C8.25766071,11.0951925 7.545375,10.8001221 7.02028929,10.2750062 C6.49520357,9.74992232 6.20026071,9.03776772 6.20026071,8.29507752 L6.20026071,8.29507752 Z M4.45024286,15.5699765 C4.81461429,14.2287242 5.75228571,13.1167139 7.01263929,12.530816 C8.27286429,11.9449502 9.72758571,11.9449502 10.9877464,12.530816 C12.2481,13.1167139 13.1857714,14.2287242 13.5501107,15.5699765 C12.215475,16.5007339 10.6273929,16.9996536 9.00032143,16.9996536 C7.37325,16.9996536 5.78507143,16.5007339 4.4505,15.5699765 L4.45024286,15.5699765 Z M9.00006429,0 C6.61307143,0 4.32392143,0.948210899 2.6361,2.63612273 C0.948214286,4.3238417 0,6.61314424 0,9.00003214 C0.0499821429,14.8850468 4.52507143,18 9,18 C13.4749286,18 17.9549679,14.8800326 18,9.00003214 C18,6.61307995 17.0517857,4.32390599 15.3639,2.63612273 C13.6761107,0.948210899 11.3868643,0 8.99993571,0 L9.00006429,0 Z" id="Fill-1" fill="#FCFDFF" mask="url(#mask-2)"></path>
            </g>
        </g>
    </g>
</svg>