<svg width="20" height="18" viewBox="0 0 20 18" fill="none" xmlns="http://www.w3.org/2000/svg">
<path fill-rule="evenodd" clip-rule="evenodd" d="M18.3616 8.26686C17.926 7.80646 17.1366 7.10029 16.0476 6.54777L17.0276 3.66207C18.198 4.27599 18.9875 4.86826 19.287 5.20592L18.3616 8.26686ZM16.1498 14.9446C15.6871 14.3921 14.8609 13.6608 13.772 13.0467L14.7954 10.0748C15.9932 10.6887 16.837 11.5176 17.1635 11.8859L16.1498 14.9446ZM11.3656 9.49143L12.5633 6.02246C12.4546 6.05308 12.3727 6.05308 12.2639 6.08391C10.9845 6.36017 9.99092 5.94446 9.0926 5.60679L9.99999 2.78591C10.98 3.1542 12.1776 3.33834 13.566 3.06213L12.5633 6.02246C13.8973 5.83832 15.0677 6.11453 16.0476 6.54431L14.8227 10.0748C13.8427 9.64499 12.6723 9.36874 11.3656 9.49143ZM10.2768 12.5919C10.168 12.6226 10.0862 12.6226 9.97735 12.6534C8.75245 12.9296 7.69086 12.807 6.7925 12.4692H6.79254L7.90619 9.10838C8.85904 9.47671 9.97735 9.76769 11.3384 9.49147H11.3656L10.2768 12.5919ZM5.36138 7.48312L6.61786 3.98882C7.08042 4.5415 7.86143 5.10144 9.08634 5.68479L7.91349 9.10838C6.57958 8.49446 5.7151 7.97435 5.36138 7.48312ZM19.9033 4.74565L19.9032 4.74586C19.8065 4.62641 17.2901 1.78451 13.2738 2.52492C9.69306 3.16964 7.90261 0.542623 7.83002 0.423343C7.85672 0.17135 7.20403 0 7.0589 0C6.91373 0.0237963 6.81687 0.0954409 6.76861 0.214891L3.28451 9.05107L0.0424576 17.2663C-0.0301267 17.4574 -0.0230843 17.6995 0.170474 17.7711C0.21895 17.795 0.789255 18 0.81358 18C0.958705 18 1.10387 17.9046 1.15231 17.7611L3.85715 11.2917C4.7082 12.2699 6.761 14.1447 9.94011 13.411C13.6449 12.5688 15.973 15.7748 16.0481 15.9107C16.1232 16.0193 16.2734 16.101 16.3986 16.0737C16.5238 16.0467 16.649 15.9652 16.6989 15.8019L19.9757 5.10383C20.0243 4.98438 20 4.84109 19.9033 4.74565Z" fill="black"/>
</svg>
