<?xml version="1.0" encoding="UTF-8"?>
<svg width="12px" height="7px" viewBox="0 0 12 7" version="1.1" xmlns="http://www.w3.org/2000/svg" xmlns:xlink="http://www.w3.org/1999/xlink">
    <title>ic/20/arrow/double/left copy</title>
    <g id="Page-1" stroke="none" stroke-width="1" fill="none" fill-rule="evenodd" fill-opacity="0.8">
        <g id="Search-Monroney-Copy" transform="translate(-15.000000, -57.000000)" fill="#0E1319">
            <g id="ic/20/arrow/double/left-copy" transform="translate(15.545000, 57.100000)">
                <path d="M10.621,6.5511625 C11.012,6.2188125 11.012,5.6816125 10.621,5.3492625 L8.328,3.4002125 L10.621,1.4511625 C11.012,1.1188125 11.012,0.5816125 10.621,0.2492625 C10.23,-0.0830875 9.598,-0.0830875 9.207,0.2492625 L5.5,3.4002125 L9.207,6.5511625 C9.402,6.7169125 9.658,6.8002125 9.914,6.8002125 C10.17,6.8002125 10.426,6.7169125 10.621,6.5511625 M4.414,6.8002125 C4.158,6.8002125 3.902,6.7169125 3.707,6.5511625 L1.77635684e-15,3.4002125 L3.707,0.2492625 C4.098,-0.0830875 4.73,-0.0830875 5.121,0.2492625 C5.512,0.5816125 5.512,1.1188125 5.121,1.4511625 L2.828,3.4002125 L5.121,5.3492625 C5.512,5.6816125 5.512,6.2188125 5.121,6.5511625 C4.926,6.7169125 4.67,6.8002125 4.414,6.8002125" id="arrow-double-right" transform="translate(5.457125, 3.400106) scale(-1, 1) translate(-5.457125, -3.400106) "></path>
            </g>
        </g>
    </g>
</svg>