<svg width="16" height="15" viewBox="0 0 16 15" fill="none" xmlns="http://www.w3.org/2000/svg">
<path fill-rule="evenodd" clip-rule="evenodd" d="M12 12.5C12 13.052 11.553 13.5 11 13.5H5C4.447 13.5 4 13.052 4 12.5C4 11.948 4.447 11.5 5 11.5H11C11.553 11.5 12 11.948 12 12.5ZM4.5 6.5V3.5C4.5 2.949 4.948 2.5 5.5 2.5H10.5C11.052 2.5 11.5 2.949 11.5 3.5V6.5H4.5ZM13.5 6.551V3.5C13.5 1.846 12.154 0.5 10.5 0.5H5.5C3.846 0.5 2.5 1.846 2.5 3.5V6.551C1.084 6.79 0 8.017 0 9.5V13.5C0 14.052 0.447 14.5 1 14.5C1.553 14.5 2 14.052 2 13.5V9.5C2 8.949 2.448 8.5 3 8.5H13C13.552 8.5 14 8.949 14 9.5V13.5C14 14.052 14.447 14.5 15 14.5C15.553 14.5 16 14.052 16 13.5V9.5C16 8.017 14.916 6.79 13.5 6.551Z" fill="#53565A"/>
</svg>
