<svg width="121" height="38" viewBox="0 0 121 38" fill="none" xmlns="http://www.w3.org/2000/svg">
<rect x="52" width="17" height="16.2273" rx="5" fill="black" fill-opacity="0.98"/>
<path d="M60.5 23.9545L53.808 11.7841L67.192 11.7841L60.5 23.9545Z" fill="#0B0A0A"/>
<path d="M60.2195 13.1293C59.567 13.1293 58.9853 13.0092 58.4744 12.7692C57.9666 12.5291 57.5634 12.1983 57.2649 11.7766C56.9664 11.355 56.811 10.8718 56.7987 10.3271H58.7376C58.7591 10.6933 58.913 10.9903 59.1992 11.218C59.4854 11.4458 59.8255 11.5597 60.2195 11.5597C60.5334 11.5597 60.8104 11.4904 61.0504 11.3519C61.2936 11.2103 61.4828 11.0149 61.6183 10.7656C61.7567 10.5133 61.826 10.224 61.826 9.89773C61.826 9.56534 61.7552 9.27296 61.6136 9.0206C61.4751 8.76823 61.2828 8.57126 61.0366 8.42969C60.7904 8.28812 60.5088 8.21579 60.1918 8.21271C59.9148 8.21271 59.6455 8.26965 59.3839 8.38352C59.1254 8.4974 58.9238 8.65282 58.7791 8.84979L57.0018 8.53125L57.4496 3.54545H63.2294V5.17969H59.0977L58.853 7.54794H58.9084C59.0746 7.31404 59.3254 7.12015 59.6609 6.96626C59.9963 6.81238 60.3718 6.73544 60.7873 6.73544C61.3567 6.73544 61.8645 6.86932 62.3107 7.13707C62.757 7.40483 63.1094 7.77261 63.3679 8.24041C63.6264 8.70514 63.7541 9.24065 63.7511 9.84695C63.7541 10.484 63.6064 11.0503 63.3079 11.5458C63.0124 12.0382 62.5985 12.426 62.0661 12.7092C61.5367 12.9892 60.9212 13.1293 60.2195 13.1293Z" fill="white"/>
<g clip-path="url(#clip0_0_1)">
<rect x="0.5" y="22.5" width="120" height="15" rx="5.5" fill="#C3D2D6" stroke="#979797"/>
<path d="M6 22.5H19.5V37.5H6C2.96243 37.5 0.5 35.0376 0.5 32V28C0.5 24.9624 2.96243 22.5 6 22.5Z" fill="#53565A" stroke="#53565A"/>
<path d="M115 22.5H101.5V37.5H115C118.038 37.5 120.5 35.0376 120.5 32V28C120.5 24.9624 118.038 22.5 115 22.5Z" fill="#53565A" stroke="#53565A"/>
<path d="M10.2 33H11.55V26.16H10.38C10.17 26.77 9.74 27.18 8.46 27.18V28.24C9.32 28.24 9.83 28.06 10.2 27.79V33Z" fill="black" fill-opacity="0.98"/>
<path d="M107.2 33H108.55V26.16H107.38C107.17 26.77 106.74 27.18 105.46 27.18V28.24C106.32 28.24 106.83 28.06 107.2 27.79V33ZM114.512 29.6C114.512 31.19 114.042 32.04 112.992 32.04C111.942 32.04 111.482 31.19 111.482 29.58C111.482 27.99 111.942 27.14 112.992 27.14C114.042 27.14 114.512 27.99 114.512 29.6ZM115.882 29.57C115.882 27.32 114.882 26.02 113.032 26.02C111.192 26.02 110.112 27.36 110.112 29.61C110.112 31.86 111.112 33.16 112.962 33.16C114.802 33.16 115.882 31.82 115.882 29.57Z" fill="black" fill-opacity="0.98"/>
</g>
<g clip-path="url(#clip1_0_1)">
<rect x="0.5" y="22.5" width="120" height="15" rx="5.5" fill="#C3D2D6" stroke="#979797"/>
<path d="M6 22.5H19.5V37.5H6C2.96243 37.5 0.5 35.0376 0.5 32V28C0.5 24.9624 2.96243 22.5 6 22.5Z" fill="#53565A" stroke="#53565A"/>
<path d="M115 22.5H101.5V37.5H115C118.038 37.5 120.5 35.0376 120.5 32V28C120.5 24.9624 118.038 22.5 115 22.5Z" fill="#53565A" stroke="#53565A"/>
<path d="M10.2 33H11.55V26.16H10.38C10.17 26.77 9.74 27.18 8.46 27.18V28.24C9.32 28.24 9.83 28.06 10.2 27.79V33Z" fill="black" fill-opacity="0.98"/>
<path d="M107.2 33H108.55V26.16H107.38C107.17 26.77 106.74 27.18 105.46 27.18V28.24C106.32 28.24 106.83 28.06 107.2 27.79V33ZM114.512 29.6C114.512 31.19 114.042 32.04 112.992 32.04C111.942 32.04 111.482 31.19 111.482 29.58C111.482 27.99 111.942 27.14 112.992 27.14C114.042 27.14 114.512 27.99 114.512 29.6ZM115.882 29.57C115.882 27.32 114.882 26.02 113.032 26.02C111.192 26.02 110.112 27.36 110.112 29.61C110.112 31.86 111.112 33.16 112.962 33.16C114.802 33.16 115.882 31.82 115.882 29.57Z" fill="black" fill-opacity="0.98"/>
</g>
<g clip-path="url(#clip2_0_1)">
<rect x="0.5" y="22.5" width="120" height="15" rx="5.5" fill="#C3D2D6" stroke="#979797"/>
<path d="M6 22.5H19.5V37.5H6C2.96243 37.5 0.5 35.0376 0.5 32V28C0.5 24.9624 2.96243 22.5 6 22.5Z" fill="#53565A" stroke="#53565A"/>
<path d="M115 22.5H101.5V37.5H115C118.038 37.5 120.5 35.0376 120.5 32V28C120.5 24.9624 118.038 22.5 115 22.5Z" fill="#53565A" stroke="#53565A"/>
<path d="M10.2 33H11.55V26.16H10.38C10.17 26.77 9.74 27.18 8.46 27.18V28.24C9.32 28.24 9.83 28.06 10.2 27.79V33Z" fill="black" fill-opacity="0.98"/>
<path d="M107.2 33H108.55V26.16H107.38C107.17 26.77 106.74 27.18 105.46 27.18V28.24C106.32 28.24 106.83 28.06 107.2 27.79V33ZM114.512 29.6C114.512 31.19 114.042 32.04 112.992 32.04C111.942 32.04 111.482 31.19 111.482 29.58C111.482 27.99 111.942 27.14 112.992 27.14C114.042 27.14 114.512 27.99 114.512 29.6ZM115.882 29.57C115.882 27.32 114.882 26.02 113.032 26.02C111.192 26.02 110.112 27.36 110.112 29.61C110.112 31.86 111.112 33.16 112.962 33.16C114.802 33.16 115.882 31.82 115.882 29.57Z" fill="black" fill-opacity="0.98"/>
</g>
<g clip-path="url(#clip3_0_1)">
<rect x="0.5" y="22.5" width="120" height="15" rx="5.5" fill="#C3D2D6" stroke="#979797"/>
<path d="M6 22.5H19.5V37.5H6C2.96243 37.5 0.5 35.0376 0.5 32V28C0.5 24.9624 2.96243 22.5 6 22.5Z" fill="#53565A" stroke="#53565A"/>
<path d="M115 22.5H101.5V37.5H115C118.038 37.5 120.5 35.0376 120.5 32V28C120.5 24.9624 118.038 22.5 115 22.5Z" fill="#53565A" stroke="#53565A"/>
<path d="M10.2 33H11.55V26.16H10.38C10.17 26.77 9.74 27.18 8.46 27.18V28.24C9.32 28.24 9.83 28.06 10.2 27.79V33Z" fill="black" fill-opacity="0.98"/>
<path d="M107.2 33H108.55V26.16H107.38C107.17 26.77 106.74 27.18 105.46 27.18V28.24C106.32 28.24 106.83 28.06 107.2 27.79V33ZM114.512 29.6C114.512 31.19 114.042 32.04 112.992 32.04C111.942 32.04 111.482 31.19 111.482 29.58C111.482 27.99 111.942 27.14 112.992 27.14C114.042 27.14 114.512 27.99 114.512 29.6ZM115.882 29.57C115.882 27.32 114.882 26.02 113.032 26.02C111.192 26.02 110.112 27.36 110.112 29.61C110.112 31.86 111.112 33.16 112.962 33.16C114.802 33.16 115.882 31.82 115.882 29.57Z" fill="black" fill-opacity="0.98"/>
</g>
<defs>
<clipPath id="clip0_0_1">
<rect width="121" height="16" fill="white" transform="translate(0 22)"/>
</clipPath>
<clipPath id="clip1_0_1">
<rect width="121" height="16" fill="white" transform="translate(0 22)"/>
</clipPath>
<clipPath id="clip2_0_1">
<rect width="121" height="16" fill="white" transform="translate(0 22)"/>
</clipPath>
<clipPath id="clip3_0_1">
<rect width="121" height="16" fill="white" transform="translate(0 22)"/>
</clipPath>
</defs>
</svg>
