<svg width="121" height="16" viewBox="0 0 121 16" fill="none" xmlns="http://www.w3.org/2000/svg">
<g clip-path="url(#clip0_5_3580)">
<rect x="0.5" y="0.5" width="120" height="15" rx="5.5" fill="#C3D2D6" stroke="#979797"/>
<path d="M0.5 6C0.5 2.96243 2.96243 0.5 6 0.5H19.5V15.5H6C2.96243 15.5 0.5 13.0376 0.5 10V6Z" fill="#53565A" stroke="#53565A"/>
<path d="M120.5 6C120.5 2.96243 118.038 0.5 115 0.5H101.5V15.5H115C118.038 15.5 120.5 13.0376 120.5 10V6Z" fill="#53565A" stroke="#53565A"/>
<path d="M10.2 11H11.55V4.16H10.38C10.17 4.77 9.74 5.18 8.46 5.18V6.24C9.32 6.24 9.83 6.06 10.2 5.79V11Z" fill="black" fill-opacity="0.98"/>
<path d="M107.2 11H108.55V4.16H107.38C107.17 4.77 106.74 5.18 105.46 5.18V6.24C106.32 6.24 106.83 6.06 107.2 5.79V11ZM114.512 7.6C114.512 9.19 114.042 10.04 112.992 10.04C111.942 10.04 111.482 9.19 111.482 7.58C111.482 5.99 111.942 5.14 112.992 5.14C114.042 5.14 114.512 5.99 114.512 7.6ZM115.882 7.57C115.882 5.32 114.882 4.02 113.032 4.02C111.192 4.02 110.112 5.36 110.112 7.61C110.112 9.86 111.112 11.16 112.962 11.16C114.802 11.16 115.882 9.82 115.882 7.57Z" fill="black" fill-opacity="0.98"/>
</g>
<defs>
<clipPath id="clip0_5_3580">
<rect width="121" height="16" fill="white"/>
</clipPath>
</defs>
</svg>
