<svg width="244" height="42" viewBox="0 0 244 42" fill="none" xmlns="http://www.w3.org/2000/svg">
<rect x="110" width="24" height="21" rx="7" fill="black" fill-opacity="0.98"/>
<path d="M122 31L113.34 15.25L130.66 15.25L122 31Z" fill="#0B0A0A"/>
<path d="M122.193 17.1591C121.39 17.1591 120.674 17.0114 120.045 16.7159C119.42 16.4205 118.924 16.0133 118.557 15.4943C118.189 14.9754 117.998 14.3807 117.983 13.7102H120.369C120.396 14.161 120.585 14.5265 120.938 14.8068C121.29 15.0871 121.708 15.2273 122.193 15.2273C122.58 15.2273 122.92 15.142 123.216 14.9716C123.515 14.7973 123.748 14.5568 123.915 14.25C124.085 13.9394 124.17 13.5833 124.17 13.1818C124.17 12.7727 124.083 12.4129 123.909 12.1023C123.739 11.7917 123.502 11.5492 123.199 11.375C122.896 11.2008 122.549 11.1117 122.159 11.108C121.818 11.108 121.487 11.178 121.165 11.3182C120.847 11.4583 120.598 11.6496 120.42 11.892L118.233 11.5L118.784 5.36364H125.898V7.375H120.812L120.511 10.2898H120.58C120.784 10.0019 121.093 9.76326 121.506 9.57386C121.919 9.38447 122.381 9.28977 122.892 9.28977C123.593 9.28977 124.218 9.45455 124.767 9.78409C125.316 10.1136 125.75 10.5663 126.068 11.142C126.386 11.714 126.544 12.3731 126.54 13.1193C126.544 13.9034 126.362 14.6004 125.994 15.2102C125.631 15.8163 125.121 16.2936 124.466 16.642C123.814 16.9867 123.057 17.1591 122.193 17.1591Z" fill="white"/>
<rect x="0.5" y="26.5" width="243" height="15" rx="5.5" fill="#C3D2D6" stroke="#979797"/>
<g clip-path="url(#clip0_1_18)">
<rect x="0.5" y="26.5" width="243" height="15" rx="5.5" fill="#C3D2D6" stroke="#979797"/>
<path d="M6 26.5H19.5V41.5H6C2.96243 41.5 0.5 39.0376 0.5 36V32C0.5 28.9624 2.96243 26.5 6 26.5Z" fill="#53565A" stroke="#53565A"/>
<path d="M238 26.5H224.5V41.5H238C241.038 41.5 243.5 39.0376 243.5 36V32C243.5 28.9624 241.038 26.5 238 26.5Z" fill="#53565A" stroke="#53565A"/>
<path d="M10.2 37H11.55V30.16H10.38C10.17 30.77 9.74 31.18 8.46 31.18V32.24C9.32 32.24 9.83 32.06 10.2 31.79V37Z" fill="black" fill-opacity="0.98"/>
<path d="M230.2 37H231.55V30.16H230.38C230.17 30.77 229.74 31.18 228.46 31.18V32.24C229.32 32.24 229.83 32.06 230.2 31.79V37ZM237.512 33.6C237.512 35.19 237.042 36.04 235.992 36.04C234.942 36.04 234.482 35.19 234.482 33.58C234.482 31.99 234.942 31.14 235.992 31.14C237.042 31.14 237.512 31.99 237.512 33.6ZM238.882 33.57C238.882 31.32 237.882 30.02 236.032 30.02C234.192 30.02 233.112 31.36 233.112 33.61C233.112 35.86 234.112 37.16 235.962 37.16C237.802 37.16 238.882 35.82 238.882 33.57Z" fill="black" fill-opacity="0.98"/>
</g>
<defs>
<clipPath id="clip0_1_18">
<rect width="244" height="16" fill="white" transform="translate(0 26)"/>
</clipPath>
</defs>
</svg>

