<svg width="14" height="16" viewBox="0 0 14 16" fill="none" xmlns="http://www.w3.org/2000/svg">
<path fill-rule="evenodd" clip-rule="evenodd" d="M11 5.817H10.5C9.947 5.817 9.5 6.264 9.5 6.817C9.5 7.37 9.947 7.817 10.5 7.817H11C11.552 7.817 12 8.265 12 8.817V12.317C12 12.869 11.552 13.317 11 13.317H3C2.448 13.317 2 12.869 2 12.317V8.817C2 8.265 2.448 7.817 3 7.817H3.5C4.053 7.817 4.5 7.37 4.5 6.817C4.5 6.264 4.053 5.817 3.5 5.817H3C1.346 5.817 0 7.163 0 8.817V12.317C0 13.971 1.346 15.317 3 15.317H11C12.654 15.317 14 13.971 14 12.317V8.817C14 7.163 12.654 5.817 11 5.817ZM4.014 2.56L6.979 0L9.981 2.555C10.401 2.914 10.452 3.545 10.095 3.965C9.896 4.198 9.615 4.317 9.333 4.317C9.104 4.317 8.873 4.239 8.685 4.079L8 3.496V9.317C8 9.87 7.553 10.317 7 10.317C6.447 10.317 6 9.87 6 9.317V3.487L5.32 4.074C4.902 4.434 4.271 4.389 3.91 3.97C3.549 3.552 3.596 2.921 4.014 2.56Z" fill="#53565A"/>
</svg>
